<svg xmlns="http://www.w3.org/2000/svg" width="920" height="380" viewBox="0 0 920 380" role="img" aria-labelledby="title desc">
  <title id="title">Rectangular pulse and Fourier-transform magnitude</title>
  <desc id="desc">A rectangular pulse in time and its normalized sinc-shaped Fourier-transform magnitude.</desc>
  <style>
    .axis { stroke: #30343b; stroke-width: 1.4; }
    .tick { stroke: #30343b; stroke-width: 1; }
    .signal { fill: none; stroke: #0f766e; stroke-width: 3; stroke-linejoin: round; }
    .spectrum { fill: none; stroke: #7c2d12; stroke-width: 2.5; }
    .title { font: 600 15px sans-serif; fill: #111827; }
    .label { font: 13px sans-serif; fill: #111827; }
    .tick-label { font: 11px sans-serif; fill: #374151; }
  </style>
  <rect width="100%" height="100%" fill="#ffffff" />
  <line class="axis" x1="54.00" y1="288.48" x2="433.00" y2="288.48" />
  <line class="axis" x1="243.50" y1="54.00" x2="243.50" y2="326.00" />
  <polyline class="signal" points="54.00,288.48 180.33,288.48 180.33,100.90 306.67,100.90 306.67,288.48 433.00,288.48" />
  <line class="tick" x1="180.33" y1="284.48" x2="180.33" y2="292.48" />
  <text class="tick-label" x="168.33" y="308.48">-T/2</text>
  <line class="tick" x1="243.50" y1="284.48" x2="243.50" y2="292.48" />
  <text class="tick-label" x="231.50" y="308.48">0</text>
  <line class="tick" x1="306.67" y1="284.48" x2="306.67" y2="292.48" />
  <text class="tick-label" x="294.67" y="308.48">T/2</text>
  <text class="title" x="197.50" y="36.00">rectangular pulse x(t)</text>
  <text class="label" x="421.00" y="316.48">t</text>
  <text class="label" x="251.50" y="68.00">1</text>
  <line class="axis" x1="487.00" y1="314.17" x2="866.00" y2="314.17" />
  <line class="axis" x1="676.50" y1="54.00" x2="676.50" y2="326.00" />
  <polyline class="spectrum" points="487.00,303.60 487.54,303.00 488.08,302.41 488.63,301.84 489.17,301.27 489.71,300.72 490.25,300.18 490.80,299.65 491.34,299.14 491.88,298.64 492.42,298.16 492.96,297.69 493.51,297.24 494.05,296.81 494.59,296.39 495.13,296.00 495.68,295.62 496.22,295.26 496.76,294.93 497.30,294.61 497.84,294.31 498.39,294.04 498.93,293.79 499.47,293.56 500.01,293.35 500.56,293.17 501.10,293.01 501.64,292.88 502.18,292.77 502.72,292.68 503.27,292.62 503.81,292.58 504.35,292.57 504.89,292.59 505.43,292.63 505.98,292.70 506.52,292.79 507.06,292.91 507.60,293.05 508.15,293.22 508.69,293.41 509.23,293.64 509.77,293.88 510.31,294.16 510.86,294.45 511.40,294.78 511.94,295.13 512.48,295.50 513.03,295.90 513.57,296.32 514.11,296.77 514.65,297.24 515.19,297.73 515.74,298.24 516.28,298.78 516.82,299.34 517.36,299.92 517.91,300.53 518.45,301.15 518.99,301.79 519.53,302.45 520.07,303.13 520.62,303.83 521.16,304.54 521.70,305.27 522.24,306.02 522.79,306.78 523.33,307.56 523.87,308.35 524.41,309.15 524.95,309.96 525.50,310.78 526.04,311.62 526.58,312.46 527.12,313.31 527.67,314.17 528.21,313.31 528.75,312.44 529.29,311.57 529.83,310.69 530.38,309.81 530.92,308.93 531.46,308.05 532.00,307.17 532.55,306.29 533.09,305.41 533.63,304.54 534.17,303.67 534.71,302.80 535.26,301.95 535.80,301.10 536.34,300.26 536.88,299.43 537.42,298.62 537.97,297.81 538.51,297.02 539.05,296.24 539.59,295.47 540.14,294.73 540.68,293.99 541.22,293.28 541.76,292.59 542.30,291.91 542.85,291.26 543.39,290.63 543.93,290.02 544.47,289.44 545.02,288.88 545.56,288.34 546.10,287.83 546.64,287.35 547.18,286.89 547.73,286.47 548.27,286.07 548.81,285.71 549.35,285.37 549.90,285.06 550.44,284.79 550.98,284.55 551.52,284.34 552.06,284.17 552.61,284.03 553.15,283.92 553.69,283.85 554.23,283.82 554.78,283.81 555.32,283.85 555.86,283.92 556.40,284.03 556.94,284.18 557.49,284.36 558.03,284.58 558.57,284.83 559.11,285.13 559.66,285.46 560.20,285.83 560.74,286.23 561.28,286.67 561.82,287.15 562.37,287.66 562.91,288.21 563.45,288.80 563.99,289.42 564.54,290.08 565.08,290.78 565.62,291.50 566.16,292.26 566.70,293.06 567.25,293.89 567.79,294.75 568.33,295.64 568.87,296.56 569.41,297.52 569.96,298.50 570.50,299.51 571.04,300.55 571.58,301.61 572.13,302.70 572.67,303.82 573.21,304.96 573.75,306.13 574.29,307.31 574.84,308.52 575.38,309.74 575.92,310.99 576.46,312.25 577.01,313.53 577.55,313.53 578.09,312.22 578.63,310.90 579.17,309.58 579.72,308.24 580.26,306.89 580.80,305.54 581.34,304.18 581.89,302.82 582.43,301.45 582.97,300.09 583.51,298.73 584.05,297.36 584.60,296.01 585.14,294.65 585.68,293.31 586.22,291.97 586.77,290.64 587.31,289.33 587.85,288.03 588.39,286.74 588.93,285.47 589.48,284.22 590.02,282.99 590.56,281.78 591.10,280.59 591.65,279.43 592.19,278.29 592.73,277.18 593.27,276.10 593.81,275.06 594.36,274.04 594.90,273.06 595.44,272.11 595.98,271.20 596.53,270.33 597.07,269.50 597.61,268.72 598.15,267.97 598.69,267.27 599.24,266.62 599.78,266.01 600.32,265.45 600.86,264.94 601.40,264.48 601.95,264.08 602.49,263.72 603.03,263.43 603.57,263.18 604.12,263.00 604.66,262.87 605.20,262.81 605.74,262.80 606.28,262.85 606.83,262.97 607.37,263.14 607.91,263.38 608.45,263.69 609.00,264.06 609.54,264.49 610.08,265.00 610.62,265.57 611.16,266.20 611.71,266.90 612.25,267.68 612.79,268.52 613.33,269.42 613.88,270.40 614.42,271.45 614.96,272.56 615.50,273.75 616.04,275.00 616.59,276.33 617.13,277.72 617.67,279.18 618.21,280.71 618.76,282.31 619.30,283.98 619.84,285.72 620.38,287.52 620.92,289.39 621.47,291.32 622.01,293.33 622.55,295.39 623.09,297.52 623.64,299.72 624.18,301.98 624.72,304.30 625.26,306.68 625.80,309.12 626.35,311.61 626.89,314.17 627.43,311.56 627.97,308.90 628.52,306.17 629.06,303.40 629.60,300.57 630.14,297.70 630.68,294.77 631.23,291.80 631.77,288.78 632.31,285.72 632.85,282.62 633.39,279.48 633.94,276.30 634.48,273.08 635.02,269.82 635.56,266.54 636.11,263.22 636.65,259.87 637.19,256.50 637.73,253.10 638.27,249.67 638.82,246.23 639.36,242.76 639.90,239.28 640.44,235.78 640.99,232.27 641.53,228.75 642.07,225.22 642.61,221.69 643.15,218.15 643.70,214.60 644.24,211.06 644.78,207.52 645.32,203.99 645.87,200.46 646.41,196.94 646.95,193.44 647.49,189.95 648.03,186.47 648.58,183.01 649.12,179.57 649.66,176.16 650.20,172.77 650.75,169.41 651.29,166.08 651.83,162.78 652.37,159.51 652.91,156.29 653.46,153.09 654.00,149.94 654.54,146.84 655.08,143.78 655.63,140.76 656.17,137.79 656.71,134.88 657.25,132.02 657.79,129.21 658.34,126.46 658.88,123.77 659.42,121.14 659.96,118.57 660.51,116.07 661.05,113.63 661.59,111.26 662.13,108.96 662.67,106.73 663.22,104.58 663.76,102.49 664.30,100.49 664.84,98.56 665.38,96.70 665.93,94.93 666.47,93.24 667.01,91.63 667.55,90.10 668.10,88.66 668.64,87.30 669.18,86.03 669.72,84.85 670.26,83.75 670.81,82.74 671.35,81.82 671.89,81.00 672.43,80.26 672.98,79.61 673.52,79.06 674.06,78.59 674.60,78.22 675.14,77.94 675.69,77.76 676.23,77.66 676.77,77.66 677.31,77.76 677.86,77.94 678.40,78.22 678.94,78.59 679.48,79.06 680.02,79.61 680.57,80.26 681.11,81.00 681.65,81.82 682.19,82.74 682.74,83.75 683.28,84.85 683.82,86.03 684.36,87.30 684.90,88.66 685.45,90.10 685.99,91.63 686.53,93.24 687.07,94.93 687.62,96.70 688.16,98.56 688.70,100.49 689.24,102.49 689.78,104.58 690.33,106.73 690.87,108.96 691.41,111.26 691.95,113.63 692.49,116.07 693.04,118.57 693.58,121.14 694.12,123.77 694.66,126.46 695.21,129.21 695.75,132.02 696.29,134.88 696.83,137.79 697.37,140.76 697.92,143.78 698.46,146.84 699.00,149.94 699.54,153.09 700.09,156.29 700.63,159.51 701.17,162.78 701.71,166.08 702.25,169.41 702.80,172.77 703.34,176.16 703.88,179.57 704.42,183.01 704.97,186.47 705.51,189.95 706.05,193.44 706.59,196.94 707.13,200.46 707.68,203.99 708.22,207.52 708.76,211.06 709.30,214.60 709.85,218.15 710.39,221.69 710.93,225.22 711.47,228.75 712.01,232.27 712.56,235.78 713.10,239.28 713.64,242.76 714.18,246.23 714.73,249.67 715.27,253.10 715.81,256.50 716.35,259.87 716.89,263.22 717.44,266.54 717.98,269.82 718.52,273.08 719.06,276.30 719.61,279.48 720.15,282.62 720.69,285.72 721.23,288.78 721.77,291.80 722.32,294.77 722.86,297.70 723.40,300.57 723.94,303.40 724.48,306.17 725.03,308.90 725.57,311.56 726.11,314.17 726.65,311.61 727.20,309.12 727.74,306.68 728.28,304.30 728.82,301.98 729.36,299.72 729.91,297.52 730.45,295.39 730.99,293.33 731.53,291.32 732.08,289.39 732.62,287.52 733.16,285.72 733.70,283.98 734.24,282.31 734.79,280.71 735.33,279.18 735.87,277.72 736.41,276.33 736.96,275.00 737.50,273.75 738.04,272.56 738.58,271.45 739.12,270.40 739.67,269.42 740.21,268.52 740.75,267.68 741.29,266.90 741.84,266.20 742.38,265.57 742.92,265.00 743.46,264.49 744.00,264.06 744.55,263.69 745.09,263.38 745.63,263.14 746.17,262.97 746.72,262.85 747.26,262.80 747.80,262.81 748.34,262.87 748.88,263.00 749.43,263.18 749.97,263.43 750.51,263.72 751.05,264.08 751.60,264.48 752.14,264.94 752.68,265.45 753.22,266.01 753.76,266.62 754.31,267.27 754.85,267.97 755.39,268.72 755.93,269.50 756.47,270.33 757.02,271.20 757.56,272.11 758.10,273.06 758.64,274.04 759.19,275.06 759.73,276.10 760.27,277.18 760.81,278.29 761.35,279.43 761.90,280.59 762.44,281.78 762.98,282.99 763.52,284.22 764.07,285.47 764.61,286.74 765.15,288.03 765.69,289.33 766.23,290.64 766.78,291.97 767.32,293.31 767.86,294.65 768.40,296.01 768.95,297.36 769.49,298.73 770.03,300.09 770.57,301.45 771.11,302.82 771.66,304.18 772.20,305.54 772.74,306.89 773.28,308.24 773.83,309.58 774.37,310.90 774.91,312.22 775.45,313.53 775.99,313.53 776.54,312.25 777.08,310.99 777.62,309.74 778.16,308.52 778.71,307.31 779.25,306.13 779.79,304.96 780.33,303.82 780.87,302.70 781.42,301.61 781.96,300.55 782.50,299.51 783.04,298.50 783.59,297.52 784.13,296.56 784.67,295.64 785.21,294.75 785.75,293.89 786.30,293.06 786.84,292.26 787.38,291.50 787.92,290.78 788.46,290.08 789.01,289.42 789.55,288.80 790.09,288.21 790.63,287.66 791.18,287.15 791.72,286.67 792.26,286.23 792.80,285.83 793.34,285.46 793.89,285.13 794.43,284.83 794.97,284.58 795.51,284.36 796.06,284.18 796.60,284.03 797.14,283.92 797.68,283.85 798.22,283.81 798.77,283.82 799.31,283.85 799.85,283.92 800.39,284.03 800.94,284.17 801.48,284.34 802.02,284.55 802.56,284.79 803.10,285.06 803.65,285.37 804.19,285.71 804.73,286.07 805.27,286.47 805.82,286.89 806.36,287.35 806.90,287.83 807.44,288.34 807.98,288.88 808.53,289.44 809.07,290.02 809.61,290.63 810.15,291.26 810.70,291.91 811.24,292.59 811.78,293.28 812.32,293.99 812.86,294.73 813.41,295.47 813.95,296.24 814.49,297.02 815.03,297.81 815.58,298.62 816.12,299.43 816.66,300.26 817.20,301.10 817.74,301.95 818.29,302.80 818.83,303.67 819.37,304.54 819.91,305.41 820.45,306.29 821.00,307.17 821.54,308.05 822.08,308.93 822.62,309.81 823.17,310.69 823.71,311.57 824.25,312.44 824.79,313.31 825.33,314.17 825.88,313.31 826.42,312.46 826.96,311.62 827.50,310.78 828.05,309.96 828.59,309.15 829.13,308.35 829.67,307.56 830.21,306.78 830.76,306.02 831.30,305.27 831.84,304.54 832.38,303.83 832.93,303.13 833.47,302.45 834.01,301.79 834.55,301.15 835.09,300.53 835.64,299.92 836.18,299.34 836.72,298.78 837.26,298.24 837.81,297.73 838.35,297.24 838.89,296.77 839.43,296.32 839.97,295.90 840.52,295.50 841.06,295.13 841.60,294.78 842.14,294.45 842.69,294.16 843.23,293.88 843.77,293.64 844.31,293.41 844.85,293.22 845.40,293.05 845.94,292.91 846.48,292.79 847.02,292.70 847.57,292.63 848.11,292.59 848.65,292.57 849.19,292.58 849.73,292.62 850.28,292.68 850.82,292.77 851.36,292.88 851.90,293.01 852.44,293.17 852.99,293.35 853.53,293.56 854.07,293.79 854.61,294.04 855.16,294.31 855.70,294.61 856.24,294.93 856.78,295.26 857.32,295.62 857.87,296.00 858.41,296.39 858.95,296.81 859.49,297.24 860.04,297.69 860.58,298.16 861.12,298.64 861.66,299.14 862.20,299.65 862.75,300.18 863.29,300.72 863.83,301.27 864.37,301.84 864.92,302.41 865.46,303.00 866.00,303.60" />
  <line class="tick" x1="626.89" y1="310.17" x2="626.89" y2="318.17" />
  <text class="tick-label" x="604.89" y="334.17">-2pi/T</text>
  <line class="tick" x1="676.50" y1="310.17" x2="676.50" y2="318.17" />
  <text class="tick-label" x="654.50" y="334.17">0</text>
  <line class="tick" x1="726.11" y1="310.17" x2="726.11" y2="318.17" />
  <text class="tick-label" x="704.11" y="334.17">2pi/T</text>
  <text class="title" x="590.50" y="36.00">normalized magnitude spectrum</text>
  <text class="label" x="814.00" y="342.17">omega</text>
  <text class="label" x="684.50" y="68.00">|X(j omega)| / T</text>
</svg>
